<svg xmlns="http://www.w3.org/2000/svg" viewBox="-250 350 150 150" width="100%" height="100%">
  <g>
    <path d="M-207.8,388.5c-2.2,0-3.9,1.8-3.9,3.9s1.8,3.9,3.9,3.9s3.9-1.8,3.9-3.9S-205.7,388.5-207.8,388.5z"/>
    <path d="M-185.8,388.5c-2.2,0-3.9,1.8-3.9,3.9s1.8,3.9,3.9,3.9s3.9-1.8,3.9-3.9S-183.7,388.5-185.8,388.5z"/>
    <path d="M-162.6,412.3c0-4.8-1.3-10-4.6-13.6c-1.7-18.5-11-26.8-29.9-26.8c-18.8,0-28,8.2-29.9,26.4c-5.3,5.2-5.4,13.1-5.4,14 c0,6.1,3.4,10.9,8.9,13.4c0.8,20,10.1,40.1,16.3,43.9c0.9,0.6,1.8,0.8,2.5,0.8c0.6,0,1.1-0.2,1.5-0.3c1.5-0.7,1.6-0.8,1.4-24.1 c0-4.3-0.1-8.6-0.1-12.2c1.7,0.3,3.4,0.4,5.2,0.4c1.5,0,2.9-0.1,4.4-0.3c0,3.6-0.1,7.9-0.1,12.1c-0.2,23.3-0.1,23.4,1.4,24.1 c0.4,0.2,0.9,0.3,1.5,0.3c0.7,0,1.5-0.2,2.5-0.8c6.2-3.8,15.5-24.1,16.3-44.2C-165.8,422.8-162.6,418.1-162.6,412.3z M-205.9,465.7c-4-3.5-12.4-20.2-13.5-38.6c1.7,0.4,3.6,0.6,5.6,0.6c2.8,0,5.4-0.4,7.7-1.2C-205.9,440.1-205.7,459.4-205.9,465.7z M-202.1,429.6c0-2.3-0.1-4.1-0.1-5.1c1.9-1.2,3.5-2.8,4.6-4.6c1.3,2,3.1,3.7,5.3,4.9c0,1,0,2.7-0.1,4.8 C-195.5,430.2-198.9,430.2-202.1,429.6z M-197.6,410.7c-0.9,0-3.8-2.3-6.3-6c0.8-0.4,2.9-0.8,6.3-0.8c3.2,0,5.4,0.4,6.3,0.8 C-194.2,408.8-196.8,410.7-197.6,410.7z M-188.5,465.7c-0.2-6.3,0-25.4,0.2-39c2.2,0.7,4.5,1,7.1,1c2.2,0,4.3-0.3,6.2-0.8 C-176.1,445.4-184.4,462.2-188.5,465.7z M-181.2,423.7c-6.5,0-13.1-2.9-14.3-9.2c0-0.1,0-0.2,0-0.3c3.1-1.4,6.2-5.4,7.5-7.3 c1.2-1.7,0.8-3.1,0.5-3.8c-1.1-2.1-4.5-3.1-10.2-3.1c-8.5,0-9.7,2.3-10.1,3.1c-0.4,0.7-0.8,2.1,0.4,3.8c0.5,0.7,4.1,5.9,7.8,7.5 c0,0.1,0,0.1,0,0.2c-1.2,6.3-7.8,9.2-14.3,9.2c-2,0-3.9-0.3-5.7-0.8c0,0,0-0.1,0-0.1h-0.3c-4.8-1.5-8.5-4.9-8.5-10.6 c0-2.4,0.9-7.9,4.3-11.1c2.1-2,4.9-3,8.3-2.9l0.1-4c-2.5-0.1-4.8,0.3-6.8,1.2c2.3-13.9,9.7-19.5,25.5-19.5 c15.8,0,23.2,5.6,25.5,19.6c-1.8-0.8-3.9-1.2-6.3-1.2v4c10.5,0,11.3,10.7,11.3,14C-166.6,420.2-173.9,423.7-181.2,423.7z"/>
  </g>
</svg>
